<?xml version="1.0" standalone="no"?>
<!DOCTYPE svg PUBLIC "-//W3C//DTD SVG 20010904//EN"
 "http://www.w3.org/TR/2001/REC-SVG-20010904/DTD/svg10.dtd">
<svg version="1.0" xmlns="http://www.w3.org/2000/svg"
 width="6000.000000pt" height="3000.000000pt" viewBox="0 0 6000.000000 3000.000000"
 preserveAspectRatio="xMidYMid meet">

<g transform="translate(0.000000,3000.000000) scale(0.100000,-0.100000)"
fill="#000000" stroke="none">
<path d="M6509 29988 c-6 -152 -4 -173 17 -176 31 -4 41 16 46 93 7 87 4 95
-33 95 -16 0 -29 -5 -30 -12z"/>
<path d="M15670 29985 c0 -33 57 -30 68 3 2 8 -9 12 -32 12 -26 0 -36 -4 -36
-15z"/>
<path d="M23165 29990 c-3 -5 -8 -45 -11 -88 -4 -60 -1 -82 9 -91 11 -9 19 -7
35 6 17 15 21 32 24 101 l3 82 -27 0 c-15 0 -30 -4 -33 -10z"/>
<path d="M31950 29970 c0 -17 6 -33 14 -36 24 -9 56 15 56 41 0 22 -4 25 -35
25 -32 0 -35 -2 -35 -30z"/>
<path d="M42942 29925 c-3 -82 6 -97 47 -75 18 9 21 20 21 80 l0 70 -32 0 -33
0 -3 -75z"/>
<path d="M53556 29984 c-9 -24 -7 -92 3 -98 5 -4 21 -2 35 4 23 8 26 15 26 60
0 49 -1 50 -29 50 -17 0 -31 -6 -35 -16z"/>
<path d="M15701 29893 c-19 -15 -23 -31 -27 -105 -5 -87 -5 -88 18 -88 41 0
46 12 49 102 4 99 -5 119 -40 91z"/>
<path d="M31976 29861 c-24 -26 -34 -186 -12 -194 8 -3 24 2 35 11 17 14 21
30 22 97 1 44 1 86 0 93 -2 18 -25 15 -45 -7z"/>
<path d="M53576 29814 c-9 -8 -16 -18 -16 -22 -1 -4 -3 -42 -6 -85 -4 -66 -2
-78 12 -84 36 -13 49 10 54 98 3 46 4 90 2 97 -6 17 -27 15 -46 -4z"/>
<path d="M42966 29771 c-12 -13 -18 -43 -22 -105 -5 -86 -5 -86 19 -86 14 0
29 6 35 13 8 10 17 135 13 185 -1 18 -25 15 -45 -7z"/>
<path d="M23178 29738 c-20 -20 -23 -33 -23 -108 0 -68 3 -85 15 -88 36 -7 49
20 52 111 5 102 -6 124 -44 85z"/>
<path d="M6521 29736 c-15 -18 -26 -182 -12 -190 5 -3 21 -2 34 3 24 9 26 15
29 93 2 46 2 89 0 96 -5 16 -37 15 -51 -2z"/>
<path d="M15698 29623 c-10 -11 -19 -49 -23 -100 -6 -70 -5 -84 8 -89 9 -3 24
-1 35 5 17 9 21 23 24 93 2 46 2 89 0 96 -6 17 -26 15 -44 -5z"/>
<path d="M31978 29598 c-12 -9 -18 -38 -23 -99 -8 -94 -3 -105 38 -90 24 9 26
15 29 89 4 115 -3 132 -44 100z"/>
<path d="M53581 29553 c-18 -15 -23 -32 -27 -105 -5 -87 -5 -88 18 -88 41 0
46 12 48 100 4 124 3 127 -39 93z"/>
<path d="M42967 29507 c-14 -9 -19 -33 -23 -99 -3 -51 -1 -89 5 -92 5 -3 21
-2 34 3 24 9 26 15 29 89 4 116 -2 131 -45 99z"/>
<path d="M6534 29482 c-21 -14 -29 -47 -29 -122 0 -68 2 -75 21 -78 11 -2 26
3 32 10 9 11 18 139 13 186 -1 13 -20 16 -37 4z"/>
<path d="M23176 29471 c-24 -26 -34 -179 -12 -187 8 -3 23 -1 34 5 17 9 21 23
24 88 2 43 2 86 -1 96 -4 22 -24 22 -45 -2z"/>
<path d="M15696 29361 c-24 -26 -34 -186 -12 -194 8 -3 24 2 35 11 17 14 21
30 22 97 1 44 1 86 0 93 -2 18 -25 15 -45 -7z"/>
<path d="M31981 29333 c-18 -15 -23 -31 -27 -99 -4 -62 -1 -84 9 -93 11 -9 19
-7 35 6 18 15 21 31 24 100 3 94 -7 114 -41 86z"/>
<path d="M53577 29288 c-25 -18 -36 -185 -14 -194 9 -3 24 -1 35 5 17 9 21 23
24 93 4 92 1 108 -16 108 -7 0 -20 -6 -29 -12z"/>
<path d="M42974 29252 c-21 -14 -29 -47 -29 -122 0 -68 2 -75 21 -78 11 -2 26
3 32 10 9 11 18 139 13 186 -1 13 -20 16 -37 4z"/>
<path d="M6531 29213 c-18 -15 -23 -32 -27 -100 -5 -87 0 -99 41 -89 22 6 24
11 27 88 3 88 0 118 -12 118 -4 0 -17 -8 -29 -17z"/>
<path d="M23181 29213 c-19 -15 -23 -31 -27 -106 -5 -75 -3 -88 11 -93 10 -4
25 1 36 13 17 16 20 34 21 102 2 92 -8 111 -41 84z"/>
<path d="M24860 29174 c-100 -10 -243 -55 -362 -113 -142 -70 -246 -149 -394
-296 -254 -252 -455 -558 -649 -990 -67 -150 -71 -160 -125 -300 -64 -167 -73
-189 -82 -200 -13 -15 -28 14 -28 57 0 48 -12 54 -49 22 -26 -21 -34 -24 -46
-14 -8 7 -15 21 -15 32 0 10 -9 44 -20 76 -215 627 -526 1009 -935 1150 -99
34 -259 62 -354 62 -130 0 -357 -44 -491 -95 -386 -146 -586 -303 -671 -526
-27 -70 -30 -218 -6 -302 75 -268 345 -557 817 -874 125 -84 416 -260 481
-291 26 -13 54 -31 64 -42 16 -18 16 -20 2 -26 -9 -3 -31 -1 -49 4 -93 29
-618 114 -893 144 -165 18 -650 18 -730 -1 -104 -23 -158 -42 -222 -77 -71
-39 -105 -77 -140 -153 -23 -49 -25 -64 -20 -131 3 -41 12 -91 20 -110 50
-127 76 -155 148 -155 95 0 132 77 84 180 -36 80 -41 110 -21 140 46 69 204
105 471 105 105 0 231 -5 280 -10 50 -6 133 -15 185 -20 105 -11 242 -30 395
-55 55 -9 124 -21 153 -25 29 -5 74 -13 100 -19 26 -5 85 -17 132 -26 47 -9
114 -23 150 -31 36 -7 97 -20 135 -28 261 -56 347 -79 359 -99 19 -30 -15 -49
-111 -63 -164 -24 -225 -34 -266 -44 -23 -5 -76 -16 -117 -25 -74 -16 -140
-32 -250 -62 -72 -19 -306 -91 -350 -108 -133 -50 -262 -101 -305 -120 -27
-12 -75 -33 -105 -46 -30 -12 -118 -54 -195 -93 -889 -446 -1644 -1159 -2144
-2026 -59 -101 -214 -407 -251 -495 -50 -117 -64 -151 -85 -205 -9 -25 -22
-56 -27 -70 -50 -125 -171 -530 -189 -632 -4 -27 -10 -52 -13 -56 -3 -5 -10
-37 -17 -73 -6 -35 -17 -98 -25 -139 -87 -477 -102 -1050 -38 -1540 29 -231
53 -357 110 -597 16 -66 22 -88 59 -218 22 -75 99 -310 115 -350 7 -16 16 -39
21 -50 201 -495 402 -857 682 -1230 191 -255 546 -635 752 -805 50 -41 95 -80
101 -86 65 -61 360 -273 509 -367 300 -188 654 -364 950 -472 55 -20 116 -42
135 -50 118 -45 440 -132 625 -169 227 -45 332 -61 560 -86 157 -17 620 -24
800 -11 267 19 341 28 575 67 136 23 428 89 500 113 14 4 52 16 85 26 127 38
361 118 420 144 11 5 72 30 135 57 183 76 466 223 660 342 585 359 1124 865
1513 1418 240 343 470 776 608 1145 41 110 117 340 135 409 145 543 189 870
189 1415 0 389 -12 541 -71 890 -22 129 -90 435 -113 505 -5 14 -16 52 -26 85
-44 149 -122 363 -196 540 -28 68 -80 179 -144 306 -65 130 -86 170 -132 244
-7 11 -22 38 -34 60 -39 73 -210 328 -302 450 -329 437 -759 851 -1193 1147
-418 286 -833 494 -1279 642 -215 72 -345 108 -540 151 -44 10 -107 24 -141
31 -33 8 -70 14 -82 14 -11 0 -44 5 -72 11 -78 17 -64 37 45 65 50 12 140 37
200 54 61 17 124 35 140 39 17 4 48 14 70 21 43 14 89 28 175 53 69 21 385
123 425 137 17 6 71 25 120 42 83 28 292 107 340 128 11 5 43 18 70 30 445
188 689 354 770 527 61 128 9 273 -133 370 -50 34 -72 43 -105 43 -67 -1 -107
-44 -107 -116 0 -31 7 -43 41 -73 105 -93 111 -100 103 -123 -39 -126 -375
-320 -884 -513 -210 -80 -489 -173 -745 -250 -49 -15 -110 -33 -135 -41 -60
-19 -289 -85 -317 -91 -39 -9 -27 22 25 63 71 57 272 225 312 260 19 17 100
89 180 160 191 169 548 523 682 677 392 448 578 793 578 1075 0 279 -186 465
-555 554 -80 19 -297 31 -395 22z m352 -240 c300 -73 418 -219 363 -446 -67
-272 -317 -630 -748 -1067 -220 -223 -604 -576 -750 -689 -19 -15 -88 -71
-153 -124 -177 -143 -285 -228 -292 -228 -4 0 -47 40 -97 88 -63 61 -111 98
-158 121 -38 19 -71 41 -74 48 -5 13 12 88 43 193 8 25 21 68 29 95 228 763
598 1442 954 1750 187 163 386 261 566 279 72 7 253 -4 317 -20z m-3292 -509
c214 -32 352 -105 520 -274 227 -230 415 -614 525 -1076 9 -38 20 -83 25 -100
5 -16 15 -68 24 -115 43 -232 44 -218 -26 -240 -66 -22 -152 -75 -218 -136
-46 -43 -64 -54 -80 -49 -70 22 -634 316 -793 414 -37 22 -70 41 -73 41 -2 0
-17 8 -32 19 -15 10 -88 58 -162 106 -301 195 -511 371 -643 538 -209 264
-198 443 35 617 165 123 425 225 648 255 125 17 139 17 250 0z"/>
<path d="M15698 29098 c-12 -9 -18 -38 -23 -99 -8 -94 -3 -105 38 -90 24 9 26
15 29 89 4 115 -3 132 -44 100z"/>
<path d="M31978 29068 c-20 -20 -23 -33 -23 -108 0 -85 0 -85 25 -82 13 1 28
6 31 10 4 4 9 47 11 95 5 102 -6 124 -44 85z"/>
<path d="M53576 29021 c-12 -13 -18 -43 -22 -105 -5 -86 -5 -86 19 -86 14 0
29 6 35 13 8 10 17 135 13 185 -1 18 -25 15 -45 -7z"/>
<path d="M42971 28983 c-19 -15 -23 -31 -27 -105 -5 -87 -5 -88 18 -88 41 0
46 12 49 102 4 99 -5 119 -40 91z"/>
<path d="M6527 28948 c-13 -10 -18 -34 -22 -101 -6 -94 2 -110 43 -88 17 9 21
23 24 93 4 92 1 108 -16 108 -7 0 -20 -6 -29 -12z"/>
<path d="M23170 28939 c-6 -11 -14 -56 -16 -100 -6 -86 3 -102 44 -80 18 9 21
23 24 96 2 47 2 90 0 95 -6 18 -41 10 -52 -11z"/>
<path d="M15701 28833 c-20 -17 -22 -28 -24 -148 -2 -125 -1 -130 19 -133 37
-5 45 19 47 153 2 138 -5 158 -42 128z"/>
<path d="M31976 28801 c-24 -26 -34 -179 -12 -187 8 -3 23 -1 34 5 17 9 21 23
24 90 2 43 2 86 0 95 -5 21 -25 20 -46 -3z"/>
<path d="M53577 28757 c-14 -9 -19 -33 -23 -99 -3 -51 -1 -89 5 -92 5 -3 21
-2 34 3 24 9 26 15 29 89 4 116 -2 131 -45 99z"/>
<path d="M42968 28713 c-10 -11 -19 -49 -23 -100 -6 -70 -5 -84 8 -89 9 -3 24
-1 35 5 17 9 21 23 24 93 2 46 2 89 0 96 -6 17 -26 15 -44 -5z"/>
<path d="M6524 28677 c-15 -18 -19 -41 -19 -103 0 -72 2 -79 21 -82 33 -5 42
18 46 113 3 77 1 90 -13 93 -9 2 -25 -8 -35 -21z"/>
<path d="M23182 28683 c-27 -24 -43 -172 -19 -191 11 -10 19 -9 35 5 18 15 22
31 24 100 2 93 -7 114 -40 86z"/>
<path d="M31981 28543 c-18 -15 -23 -31 -27 -106 -5 -75 -3 -88 11 -93 34 -13
53 25 57 114 5 94 -5 114 -41 85z"/>
<path d="M53584 28502 c-21 -14 -29 -47 -29 -122 0 -68 2 -75 21 -78 11 -2 26
3 32 10 9 11 18 139 13 186 -1 13 -20 16 -37 4z"/>
<path d="M15691 28476 c-15 -18 -26 -182 -12 -190 5 -3 21 -2 34 3 24 9 26 15
29 93 2 46 2 89 0 96 -5 16 -37 15 -51 -2z"/>
<path d="M42966 28451 c-24 -26 -34 -186 -12 -194 8 -3 24 2 35 11 17 14 21
30 22 97 1 44 1 86 0 93 -2 18 -25 15 -45 -7z"/>
<path d="M6527 28417 c-14 -9 -19 -33 -23 -99 -3 -51 -1 -89 5 -92 5 -3 21 -2
34 3 24 9 26 15 29 89 4 116 -2 131 -45 99z"/>
<path d="M23168 28408 c-20 -34 -18 -182 2 -186 37 -7 49 20 52 113 3 86 2 90
-19 93 -14 2 -26 -5 -35 -20z"/>
<path d="M31976 28271 c-20 -22 -34 -175 -17 -185 5 -3 21 -2 34 3 24 9 26 15
29 93 2 46 2 89 0 96 -6 18 -26 15 -46 -7z"/>
<path d="M53581 28233 c-19 -15 -23 -31 -27 -105 -5 -87 -5 -88 18 -88 41 0
46 12 49 102 4 99 -5 119 -40 91z"/>
<path d="M15704 28222 c-21 -14 -29 -47 -29 -122 0 -68 2 -75 21 -78 11 -2 26
3 32 10 9 11 18 139 13 186 -1 13 -20 16 -37 4z"/>
<path d="M42968 28188 c-12 -9 -18 -38 -23 -99 -8 -94 -3 -105 38 -90 24 9 26
15 29 89 4 115 -3 132 -44 100z"/>
<path d="M6526 28154 c-9 -8 -16 -18 -16 -22 -1 -4 -3 -42 -6 -85 -4 -66 -2
-78 12 -84 36 -13 49 10 54 98 3 46 4 90 2 97 -6 17 -27 15 -46 -4z"/>
<path d="M23173 28147 c-14 -18 -18 -41 -18 -103 0 -72 2 -79 21 -82 11 -2 26
3 32 10 9 11 16 108 13 181 -1 24 -26 21 -48 -6z"/>
<path d="M31981 28013 c-18 -15 -23 -31 -27 -99 -4 -62 -1 -84 9 -93 11 -9 19
-7 35 6 18 15 21 31 24 100 3 94 -7 114 -41 86z"/>
<path d="M53578 27963 c-10 -11 -19 -49 -23 -100 -6 -70 -5 -84 8 -89 9 -3 24
-1 35 5 17 9 21 23 24 93 2 46 2 89 0 96 -6 17 -26 15 -44 -5z"/>
<path d="M15701 27953 c-18 -15 -23 -32 -27 -100 -5 -87 0 -99 41 -89 22 6 24
11 27 88 3 88 0 118 -12 118 -4 0 -17 -8 -29 -17z"/>
<path d="M42971 27923 c-18 -15 -23 -31 -27 -99 -4 -62 -1 -84 9 -93 11 -9 19
-7 35 6 18 15 21 31 24 100 3 94 -7 114 -41 86z"/>
<path d="M6531 27893 c-18 -15 -23 -32 -27 -105 -5 -87 -5 -88 18 -88 41 0 46
12 48 100 4 124 3 127 -39 93z"/>
<path d="M23171 27886 c-15 -18 -24 -166 -12 -186 8 -12 13 -12 35 0 23 12 26
20 27 64 0 28 1 69 2 91 2 34 -1 40 -19 43 -11 2 -26 -4 -33 -12z"/>
<path d="M31978 27748 c-20 -20 -23 -33 -23 -108 0 -68 3 -85 15 -88 36 -7 49
20 52 111 5 102 -6 124 -44 85z"/>
<path d="M53576 27701 c-24 -26 -34 -186 -12 -194 8 -3 24 2 35 11 17 14 21
30 22 97 1 44 1 86 0 93 -2 18 -25 15 -45 -7z"/>
<path d="M15697 27688 c-13 -10 -18 -34 -22 -101 -6 -94 2 -110 43 -88 17 9
21 23 24 93 4 92 1 108 -16 108 -7 0 -20 -6 -29 -12z"/>
<path d="M42968 27658 c-20 -20 -23 -33 -23 -108 0 -85 0 -85 25 -82 13 1 28
6 31 10 4 4 9 47 11 95 5 102 -6 124 -44 85z"/>
<path d="M6527 27628 c-25 -18 -36 -185 -14 -194 9 -3 24 -1 35 5 17 9 21 23
24 93 4 92 1 108 -16 108 -7 0 -20 -6 -29 -12z"/>
<path d="M23172 27619 c-8 -12 -16 -57 -19 -100 -5 -85 4 -102 45 -80 15 8 20
25 26 89 3 44 3 87 0 96 -9 23 -37 20 -52 -5z"/>
<path d="M31976 27481 c-24 -26 -34 -179 -12 -187 8 -3 23 -1 34 5 17 9 21 23
24 88 2 43 2 86 -1 96 -4 22 -24 22 -45 -2z"/>
<path d="M53578 27438 c-12 -9 -18 -38 -23 -99 -8 -94 -3 -105 38 -90 24 9 26
15 29 89 4 115 -3 132 -44 100z"/>
<path d="M15694 27417 c-15 -18 -19 -41 -19 -103 0 -72 2 -79 21 -82 33 -5 42
18 46 113 3 77 1 90 -13 93 -9 2 -25 -8 -35 -21z"/>
<path d="M42966 27391 c-24 -26 -34 -179 -12 -187 8 -3 23 -1 34 5 17 9 21 23
24 90 2 43 2 86 0 95 -5 21 -25 20 -46 -3z"/>
<path d="M6526 27361 c-12 -13 -18 -43 -22 -105 -5 -86 -5 -86 19 -86 14 0 29
6 35 13 8 10 17 135 13 185 -1 18 -25 15 -45 -7z"/>
<path d="M31981 27223 c-19 -15 -23 -31 -27 -106 -5 -75 -3 -88 11 -93 10 -4
25 1 36 13 17 16 20 34 21 102 2 92 -8 111 -41 84z"/>
<path d="M53581 27173 c-18 -15 -23 -31 -27 -99 -4 -62 -1 -84 9 -93 11 -9 19
-7 35 6 18 15 21 31 24 100 3 94 -7 114 -41 86z"/>
<path d="M15697 27157 c-14 -9 -19 -33 -23 -99 -3 -51 -1 -89 5 -92 5 -3 21
-2 34 3 24 9 26 15 29 89 4 116 -2 131 -45 99z"/>
<path d="M42971 27133 c-18 -15 -23 -31 -27 -106 -5 -75 -3 -88 11 -93 34 -13
53 25 57 114 5 94 -5 114 -41 85z"/>
<path d="M6527 27097 c-14 -9 -19 -33 -23 -99 -3 -51 -1 -89 5 -92 5 -3 21 -2
34 3 24 9 26 15 29 89 4 116 -2 131 -45 99z"/>
<path d="M31970 26949 c-6 -11 -14 -56 -16 -100 -6 -86 3 -102 44 -80 18 9 21
23 24 96 2 47 2 90 0 95 -6 18 -41 10 -52 -11z"/>
<path d="M53578 26908 c-20 -20 -23 -33 -23 -108 0 -85 0 -85 25 -82 13 1 28
6 31 10 4 4 9 47 11 95 5 102 -6 124 -44 85z"/>
<path d="M15696 26894 c-9 -8 -16 -18 -16 -22 -1 -4 -3 -42 -6 -85 -4 -66 -2
-78 12 -84 36 -13 49 10 54 98 3 46 4 90 2 97 -6 17 -27 15 -46 -4z"/>
<path d="M42966 26861 c-20 -22 -34 -175 -17 -185 5 -3 21 -2 34 3 24 9 26 15
29 93 2 46 2 89 0 96 -6 18 -26 15 -46 -7z"/>
<path d="M6534 26842 c-21 -14 -29 -47 -29 -122 0 -68 2 -75 21 -78 11 -2 26
3 32 10 9 11 18 139 13 186 -1 13 -20 16 -37 4z"/>
<path d="M31982 26693 c-27 -24 -43 -172 -19 -191 11 -10 19 -9 35 5 18 15 22
31 24 100 2 93 -7 114 -40 86z"/>
<path d="M53576 26641 c-24 -26 -34 -179 -12 -187 8 -3 23 -1 34 5 17 9 21 23
24 90 2 43 2 86 0 95 -5 21 -25 20 -46 -3z"/>
<path d="M15701 26633 c-18 -15 -23 -32 -27 -105 -5 -87 -5 -88 18 -88 41 0
46 12 48 100 4 124 3 127 -39 93z"/>
<path d="M42971 26603 c-18 -15 -23 -31 -27 -99 -4 -62 -1 -84 9 -93 11 -9 19
-7 35 6 18 15 21 31 24 100 3 94 -7 114 -41 86z"/>
<path d="M6531 26573 c-19 -15 -23 -31 -27 -105 -5 -87 -5 -88 18 -88 41 0 46
12 49 102 4 99 -5 119 -40 91z"/>
<path d="M31968 26418 c-20 -34 -18 -182 2 -186 37 -7 49 20 52 113 3 86 2 90
-19 93 -14 2 -26 -5 -35 -20z"/>
<path d="M53581 26383 c-18 -15 -23 -31 -27 -106 -5 -75 -3 -88 11 -93 34 -13
53 25 57 114 5 94 -5 114 -41 85z"/>
<path d="M15697 26368 c-25 -18 -36 -185 -14 -194 9 -3 24 -1 35 5 17 9 21 23
24 93 4 92 1 108 -16 108 -7 0 -20 -6 -29 -12z"/>
<path d="M42968 26338 c-20 -20 -23 -33 -23 -108 0 -68 3 -85 15 -88 36 -7 49
20 52 111 5 102 -6 124 -44 85z"/>
<path d="M6528 26303 c-10 -11 -19 -49 -23 -100 -6 -70 -5 -84 8 -89 9 -3 24
-1 35 5 17 9 21 23 24 93 2 46 2 89 0 96 -6 17 -26 15 -44 -5z"/>
<path d="M31973 26157 c-14 -18 -18 -41 -18 -103 0 -72 2 -79 21 -82 11 -2 26
3 32 10 9 11 16 108 13 181 -1 24 -26 21 -48 -6z"/>
<path d="M53576 26111 c-20 -22 -34 -175 -17 -185 5 -3 21 -2 34 3 24 9 26 15
29 93 2 46 2 89 0 96 -6 18 -26 15 -46 -7z"/>
<path d="M15696 26101 c-12 -13 -18 -43 -22 -105 -5 -86 -5 -86 19 -86 14 0
29 6 35 13 8 10 17 135 13 185 -1 18 -25 15 -45 -7z"/>
<path d="M42966 26071 c-24 -26 -34 -179 -12 -187 8 -3 23 -1 34 5 17 9 21 23
24 88 2 43 2 86 -1 96 -4 22 -24 22 -45 -2z"/>
<path d="M6526 26041 c-24 -26 -34 -186 -12 -194 8 -3 24 2 35 11 17 14 21 30
22 97 1 44 1 86 0 93 -2 18 -25 15 -45 -7z"/>
<path d="M31949 25908 c-6 -152 -4 -173 17 -176 31 -4 41 16 46 93 7 87 4 95
-33 95 -16 0 -29 -5 -30 -12z"/>
<path d="M53581 25853 c-18 -15 -23 -31 -27 -99 -4 -62 -1 -84 9 -93 11 -9 19
-7 35 6 18 15 21 31 24 100 3 94 -7 114 -41 86z"/>
<path d="M15697 25837 c-14 -9 -19 -33 -23 -99 -3 -51 -1 -89 5 -92 5 -3 21
-2 34 3 24 9 26 15 29 89 4 116 -2 131 -45 99z"/>
<path d="M42971 25813 c-19 -15 -23 -31 -27 -106 -5 -75 -3 -88 11 -93 10 -4
25 1 36 13 17 16 20 34 21 102 2 92 -8 111 -41 84z"/>
<path d="M6528 25778 c-12 -9 -18 -38 -23 -99 -8 -94 -3 -105 38 -90 24 9 26
15 29 89 4 115 -3 132 -44 100z"/>
<path d="M44650 25774 c-100 -10 -243 -55 -362 -113 -142 -70 -246 -149 -394
-296 -254 -252 -455 -558 -649 -990 -67 -150 -71 -160 -125 -300 -64 -167 -73
-189 -82 -200 -13 -15 -28 14 -28 57 0 48 -12 54 -49 22 -26 -21 -34 -24 -46
-14 -8 7 -15 21 -15 32 0 10 -9 44 -20 76 -215 627 -526 1009 -935 1150 -99
34 -259 62 -354 62 -130 0 -357 -44 -491 -95 -386 -146 -586 -303 -671 -526
-27 -70 -30 -218 -6 -302 75 -268 345 -557 817 -874 125 -84 416 -260 481
-291 26 -13 54 -31 64 -42 16 -18 16 -20 2 -26 -9 -3 -31 -1 -49 4 -93 29
-618 114 -893 144 -165 18 -650 18 -730 -1 -104 -23 -158 -42 -222 -77 -71
-39 -105 -77 -140 -153 -23 -49 -25 -64 -20 -131 3 -41 12 -91 20 -110 50
-127 76 -155 148 -155 95 0 132 77 84 180 -36 80 -41 110 -21 140 46 69 204
105 471 105 105 0 231 -5 280 -10 50 -6 133 -15 185 -20 105 -11 242 -30 395
-55 55 -9 124 -21 153 -25 29 -5 74 -13 100 -19 26 -5 85 -17 132 -26 47 -9
114 -23 150 -31 36 -7 97 -20 135 -28 261 -56 347 -79 359 -99 19 -30 -15 -49
-111 -63 -164 -24 -225 -34 -266 -44 -23 -5 -76 -16 -117 -25 -74 -16 -140
-32 -250 -62 -72 -19 -306 -91 -350 -108 -133 -50 -262 -101 -305 -120 -27
-12 -75 -33 -105 -46 -30 -12 -118 -54 -195 -93 -889 -446 -1644 -1159 -2144
-2026 -59 -101 -214 -407 -251 -495 -50 -117 -64 -151 -85 -205 -9 -25 -22
-56 -27 -70 -50 -125 -171 -530 -189 -632 -4 -27 -10 -52 -13 -56 -3 -5 -10
-37 -17 -73 -6 -35 -17 -98 -25 -139 -87 -477 -102 -1050 -38 -1540 29 -231
53 -357 110 -597 16 -66 22 -88 59 -218 22 -75 99 -310 115 -350 7 -16 16 -39
21 -50 201 -495 402 -857 682 -1230 191 -255 546 -635 752 -805 50 -41 95 -80
101 -86 65 -61 360 -273 509 -367 300 -188 654 -364 950 -472 55 -20 116 -42
135 -50 118 -45 440 -132 625 -169 227 -45 332 -61 560 -86 157 -17 620 -24
800 -11 267 19 341 28 575 67 136 23 428 89 500 113 14 4 52 16 85 26 127 38
361 118 420 144 11 5 72 30 135 57 183 76 466 223 660 342 585 359 1124 865
1513 1418 240 343 470 776 608 1145 41 110 117 340 135 409 145 543 189 870
189 1415 0 389 -12 541 -71 890 -22 129 -90 435 -113 505 -5 14 -16 52 -26 85
-44 149 -122 363 -196 540 -28 68 -80 179 -144 306 -65 130 -86 170 -132 244
-7 11 -22 38 -34 60 -39 73 -210 328 -302 450 -329 437 -759 851 -1193 1147
-418 286 -833 494 -1279 642 -215 72 -345 108 -540 151 -44 10 -107 24 -141
31 -33 8 -70 14 -82 14 -11 0 -44 5 -72 11 -78 17 -64 37 45 65 50 12 140 37
200 54 61 17 124 35 140 39 17 4 48 14 70 21 43 14 89 28 175 53 69 21 385
123 425 137 17 6 71 25 120 42 83 28 292 107 340 128 11 5 43 18 70 30 445
188 689 354 770 527 61 128 9 273 -133 370 -50 34 -72 43 -105 43 -67 -1 -107
-44 -107 -116 0 -31 7 -43 41 -73 105 -93 111 -100 103 -123 -39 -126 -375
-320 -884 -513 -210 -80 -489 -173 -745 -250 -49 -15 -110 -33 -135 -41 -60
-19 -289 -85 -317 -91 -39 -9 -27 22 25 63 71 57 272 225 312 260 19 17 100
89 180 160 191 169 548 523 682 677 392 448 578 793 578 1075 0 279 -186 465
-555 554 -80 19 -297 31 -395 22z m352 -240 c300 -73 418 -219 363 -446 -67
-272 -317 -630 -748 -1067 -220 -223 -604 -576 -750 -689 -19 -15 -88 -71
-153 -124 -177 -143 -285 -228 -292 -228 -4 0 -47 40 -97 88 -63 61 -111 98
-158 121 -38 19 -71 41 -74 48 -5 13 12 88 43 193 8 25 21 68 29 95 228 763
598 1442 954 1750 187 163 386 261 566 279 72 7 253 -4 317 -20z m-3292 -509
c214 -32 352 -105 520 -274 227 -230 415 -614 525 -1076 9 -38 20 -83 25 -100
5 -16 15 -68 24 -115 43 -232 44 -218 -26 -240 -66 -22 -152 -75 -218 -136
-46 -43 -64 -54 -80 -49 -70 22 -634 316 -793 414 -37 22 -70 41 -73 41 -2 0
-17 8 -32 19 -15 10 -88 58 -162 106 -301 195 -511 371 -643 538 -209 264
-198 443 35 617 165 123 425 225 648 255 125 17 139 17 250 0z"/>
<path d="M31961 25656 c-15 -18 -26 -182 -12 -190 5 -3 21 -2 34 3 24 9 26 15
29 93 2 46 2 89 0 96 -5 16 -37 15 -51 -2z"/>
<path d="M53578 25588 c-20 -20 -23 -33 -23 -108 0 -68 3 -85 15 -88 36 -7 49
20 52 111 5 102 -6 124 -44 85z"/>
<path d="M15704 25582 c-21 -14 -29 -47 -29 -122 0 -68 2 -75 21 -78 11 -2 26
3 32 10 9 11 18 139 13 186 -1 13 -20 16 -37 4z"/>
<path d="M42960 25539 c-6 -11 -14 -56 -16 -100 -6 -86 3 -102 44 -80 18 9 21
23 24 96 2 47 2 90 0 95 -6 18 -41 10 -52 -11z"/>
<path d="M6531 25513 c-18 -15 -23 -31 -27 -99 -4 -62 -1 -84 9 -93 11 -9 19
-7 35 6 18 15 21 31 24 100 3 94 -7 114 -41 86z"/>
<path d="M31974 25402 c-21 -14 -29 -47 -29 -122 0 -68 2 -75 21 -78 11 -2 26
3 32 10 9 11 18 139 13 186 -1 13 -20 16 -37 4z"/>
<path d="M53576 25321 c-24 -26 -34 -179 -12 -187 8 -3 23 -1 34 5 17 9 21 23
24 88 2 43 2 86 -1 96 -4 22 -24 22 -45 -2z"/>
<path d="M15701 25313 c-19 -15 -23 -31 -27 -105 -5 -87 -5 -88 18 -88 41 0
46 12 49 102 4 99 -5 119 -40 91z"/>
<path d="M42972 25283 c-27 -24 -43 -172 -19 -191 11 -10 19 -9 35 5 18 15 22
31 24 100 2 93 -7 114 -40 86z"/>
<path d="M6528 25248 c-20 -20 -23 -33 -23 -108 0 -85 0 -85 25 -82 13 1 28 6
31 10 4 4 9 47 11 95 5 102 -6 124 -44 85z"/>
<path d="M31971 25133 c-18 -15 -23 -32 -27 -100 -5 -87 0 -99 41 -89 22 6 24
11 27 88 3 88 0 118 -12 118 -4 0 -17 -8 -29 -17z"/>
<path d="M53581 25063 c-19 -15 -23 -31 -27 -106 -5 -75 -3 -88 11 -93 10 -4
25 1 36 13 17 16 20 34 21 102 2 92 -8 111 -41 84z"/>
<path d="M15698 25043 c-10 -11 -19 -49 -23 -100 -6 -70 -5 -84 8 -89 9 -3 24
-1 35 5 17 9 21 23 24 93 2 46 2 89 0 96 -6 17 -26 15 -44 -5z"/>
<path d="M42958 25008 c-20 -34 -18 -182 2 -186 37 -7 49 20 52 113 3 86 2 90
-19 93 -14 2 -26 -5 -35 -20z"/>
<path d="M6526 24981 c-24 -26 -34 -179 -12 -187 8 -3 23 -1 34 5 17 9 21 23
24 90 2 43 2 86 0 95 -5 21 -25 20 -46 -3z"/>
<path d="M31967 24868 c-13 -10 -18 -34 -22 -101 -6 -94 2 -110 43 -88 17 9
21 23 24 93 4 92 1 108 -16 108 -7 0 -20 -6 -29 -12z"/>
<path d="M53570 24789 c-6 -11 -14 -56 -16 -100 -6 -86 3 -102 44 -80 18 9 21
23 24 96 2 47 2 90 0 95 -6 18 -41 10 -52 -11z"/>
<path d="M15696 24781 c-24 -26 -34 -186 -12 -194 8 -3 24 2 35 11 17 14 21
30 22 97 1 44 1 86 0 93 -2 18 -25 15 -45 -7z"/>
<path d="M42963 24747 c-14 -18 -18 -41 -18 -103 0 -72 2 -79 21 -82 11 -2 26
3 32 10 9 11 16 108 13 181 -1 24 -26 21 -48 -6z"/>
<path d="M6531 24723 c-18 -15 -23 -31 -27 -106 -5 -75 -3 -88 11 -93 34 -13
53 25 57 114 5 94 -5 114 -41 85z"/>
<path d="M31964 24597 c-15 -18 -19 -41 -19 -103 0 -72 2 -79 21 -82 33 -5 42
18 46 113 3 77 1 90 -13 93 -9 2 -25 -8 -35 -21z"/>
<path d="M53582 24533 c-27 -24 -43 -172 -19 -191 11 -10 19 -9 35 5 18 15 22
31 24 100 2 93 -7 114 -40 86z"/>
<path d="M15698 24518 c-12 -9 -18 -38 -23 -99 -8 -94 -3 -105 38 -90 24 9 26
15 29 89 4 115 -3 132 -44 100z"/>
<path d="M42961 24486 c-15 -18 -24 -166 -12 -186 8 -12 13 -12 35 0 23 12 26
20 27 64 0 28 1 69 2 91 2 34 -1 40 -19 43 -11 2 -26 -4 -33 -12z"/>
<path d="M6526 24451 c-20 -22 -34 -175 -17 -185 5 -3 21 -2 34 3 24 9 26 15
29 93 2 46 2 89 0 96 -6 18 -26 15 -46 -7z"/>
<path d="M31967 24337 c-14 -9 -19 -33 -23 -99 -3 -51 -1 -89 5 -92 5 -3 21
-2 34 3 24 9 26 15 29 89 4 116 -2 131 -45 99z"/>
<path d="M53568 24258 c-20 -34 -18 -182 2 -186 37 -7 49 20 52 113 3 86 2 90
-19 93 -14 2 -26 -5 -35 -20z"/>
<path d="M15701 24253 c-18 -15 -23 -31 -27 -99 -4 -62 -1 -84 9 -93 11 -9 19
-7 35 6 18 15 21 31 24 100 3 94 -7 114 -41 86z"/>
<path d="M42962 24219 c-8 -12 -16 -57 -19 -100 -5 -85 4 -102 45 -80 15 8 20
25 26 89 3 44 3 87 0 96 -9 23 -37 20 -52 -5z"/>
<path d="M6531 24193 c-18 -15 -23 -31 -27 -99 -4 -62 -1 -84 9 -93 11 -9 19
-7 35 6 18 15 21 31 24 100 3 94 -7 114 -41 86z"/>
<path d="M31966 24074 c-9 -8 -16 -18 -16 -22 -1 -4 -3 -42 -6 -85 -4 -66 -2
-78 12 -84 36 -13 49 10 54 98 3 46 4 90 2 97 -6 17 -27 15 -46 -4z"/>
<path d="M53573 23997 c-14 -18 -18 -41 -18 -103 0 -72 2 -79 21 -82 11 -2 26
3 32 10 9 11 16 108 13 181 -1 24 -26 21 -48 -6z"/>
<path d="M15698 23988 c-20 -20 -23 -33 -23 -108 0 -85 0 -85 25 -82 13 1 28
6 31 10 4 4 9 47 11 95 5 102 -6 124 -44 85z"/>
<path d="M6528 23928 c-20 -20 -23 -33 -23 -108 0 -68 3 -85 15 -88 36 -7 49
20 52 111 5 102 -6 124 -44 85z"/>
<path d="M31971 23813 c-18 -15 -23 -32 -27 -105 -5 -87 -5 -88 18 -88 41 0
46 12 48 100 4 124 3 127 -39 93z"/>
<path d="M53549 23748 c-6 -152 -4 -173 17 -176 31 -4 41 16 46 93 7 87 4 95
-33 95 -16 0 -29 -5 -30 -12z"/>
<path d="M15696 23721 c-24 -26 -34 -179 -12 -187 8 -3 23 -1 34 5 17 9 21 23
24 90 2 43 2 86 0 95 -5 21 -25 20 -46 -3z"/>
<path d="M6526 23661 c-24 -26 -34 -179 -12 -187 8 -3 23 -1 34 5 17 9 21 23
24 88 2 43 2 86 -1 96 -4 22 -24 22 -45 -2z"/>
<path d="M31967 23548 c-25 -18 -36 -185 -14 -194 9 -3 24 -1 35 5 17 9 21 23
24 93 4 92 1 108 -16 108 -7 0 -20 -6 -29 -12z"/>
<path d="M53561 23496 c-15 -18 -26 -182 -12 -190 5 -3 21 -2 34 3 24 9 26 15
29 93 2 46 2 89 0 96 -5 16 -37 15 -51 -2z"/>
<path d="M15701 23463 c-18 -15 -23 -31 -27 -106 -5 -75 -3 -88 11 -93 34 -13
53 25 57 114 5 94 -5 114 -41 85z"/>
<path d="M6531 23403 c-19 -15 -23 -31 -27 -106 -5 -75 -3 -88 11 -93 10 -4
25 1 36 13 17 16 20 34 21 102 2 92 -8 111 -41 84z"/>
<path d="M8210 23364 c-100 -10 -243 -55 -362 -113 -142 -70 -246 -149 -394
-296 -254 -252 -455 -558 -649 -990 -67 -150 -71 -160 -125 -300 -64 -167 -73
-189 -82 -200 -13 -15 -28 14 -28 57 0 48 -12 54 -49 22 -26 -21 -34 -24 -46
-14 -8 7 -15 21 -15 32 0 10 -9 44 -20 76 -215 627 -526 1009 -935 1150 -99
34 -259 62 -354 62 -130 0 -357 -44 -491 -95 -386 -146 -586 -303 -671 -526
-27 -70 -30 -218 -6 -302 75 -268 345 -557 817 -874 125 -84 416 -260 481
-291 26 -13 54 -31 64 -42 16 -18 16 -20 2 -26 -9 -3 -31 -1 -49 4 -93 29
-618 114 -893 144 -165 18 -650 18 -730 -1 -104 -23 -158 -42 -222 -77 -71
-39 -105 -77 -140 -153 -23 -49 -25 -64 -20 -131 3 -41 12 -91 20 -110 50
-127 76 -155 148 -155 95 0 132 77 84 180 -36 80 -41 110 -21 140 46 69 204
105 471 105 105 0 231 -5 280 -10 50 -6 133 -15 185 -20 105 -11 242 -30 395
-55 55 -9 124 -21 153 -25 29 -5 74 -13 100 -19 26 -5 85 -17 132 -26 47 -9
114 -23 150 -31 36 -7 97 -20 135 -28 261 -56 347 -79 359 -99 19 -30 -15 -49
-111 -63 -164 -24 -225 -34 -266 -44 -23 -5 -76 -16 -117 -25 -74 -16 -140
-32 -250 -62 -72 -19 -306 -91 -350 -108 -133 -50 -262 -101 -305 -120 -27
-12 -75 -33 -105 -46 -30 -12 -118 -54 -195 -93 -889 -446 -1644 -1159 -2144
-2026 -59 -101 -214 -407 -251 -495 -50 -117 -64 -151 -85 -205 -9 -25 -22
-56 -27 -70 -50 -125 -171 -530 -189 -632 -4 -27 -10 -52 -13 -56 -3 -5 -10
-37 -17 -73 -6 -35 -17 -98 -25 -139 -87 -477 -102 -1050 -38 -1540 29 -231
53 -357 110 -597 16 -66 22 -88 59 -218 22 -75 99 -310 115 -350 7 -16 16 -39
21 -50 201 -495 402 -857 682 -1230 191 -255 546 -635 752 -805 50 -41 95 -80
101 -86 65 -61 360 -273 509 -367 300 -188 654 -364 950 -472 55 -20 116 -42
135 -50 118 -45 440 -132 625 -169 227 -45 332 -61 560 -86 157 -17 620 -24
800 -11 267 19 341 28 575 67 136 23 428 89 500 113 14 4 52 16 85 26 127 38
361 118 420 144 11 5 72 30 135 57 183 76 466 223 660 342 585 359 1124 865
1513 1418 240 343 470 776 608 1145 41 110 117 340 135 409 145 543 189 870
189 1415 0 389 -12 541 -71 890 -22 129 -90 435 -113 505 -5 14 -16 52 -26 85
-44 149 -122 363 -196 540 -28 68 -80 179 -144 306 -65 130 -86 170 -132 244
-7 11 -22 38 -34 60 -39 73 -210 328 -302 450 -329 437 -759 851 -1193 1147
-418 286 -833 494 -1279 642 -215 72 -345 108 -540 151 -44 10 -107 24 -141
31 -33 8 -70 14 -82 14 -11 0 -44 5 -72 11 -78 17 -64 37 45 65 50 12 140 37
200 54 61 17 124 35 140 39 17 4 48 14 70 21 43 14 89 28 175 53 69 21 385
123 425 137 17 6 71 25 120 42 83 28 292 107 340 128 11 5 43 18 70 30 445
188 689 354 770 527 61 128 9 273 -133 370 -50 34 -72 43 -105 43 -67 -1 -107
-44 -107 -116 0 -31 7 -43 41 -73 105 -93 111 -100 103 -123 -39 -126 -375
-320 -884 -513 -210 -80 -489 -173 -745 -250 -49 -15 -110 -33 -135 -41 -60
-19 -289 -85 -317 -91 -39 -9 -27 22 25 63 71 57 272 225 312 260 19 17 100
89 180 160 191 169 548 523 682 677 392 448 578 793 578 1075 0 279 -186 465
-555 554 -80 19 -297 31 -395 22z m352 -240 c300 -73 418 -219 363 -446 -67
-272 -317 -630 -748 -1067 -220 -223 -604 -576 -750 -689 -19 -15 -88 -71
-153 -124 -177 -143 -285 -228 -292 -228 -4 0 -47 40 -97 88 -63 61 -111 98
-158 121 -38 19 -71 41 -74 48 -5 13 12 88 43 193 8 25 21 68 29 95 228 763
598 1442 954 1750 187 163 386 261 566 279 72 7 253 -4 317 -20z m-3292 -509
c214 -32 352 -105 520 -274 227 -230 415 -614 525 -1076 9 -38 20 -83 25 -100
5 -16 15 -68 24 -115 43 -232 44 -218 -26 -240 -66 -22 -152 -75 -218 -136
-46 -43 -64 -54 -80 -49 -70 22 -634 316 -793 414 -37 22 -70 41 -73 41 -2 0
-17 8 -32 19 -15 10 -88 58 -162 106 -301 195 -511 371 -643 538 -209 264
-198 443 35 617 165 123 425 225 648 255 125 17 139 17 250 0z"/>
<path d="M31966 23281 c-12 -13 -18 -43 -22 -105 -5 -86 -5 -86 19 -86 14 0
29 6 35 13 8 10 17 135 13 185 -1 18 -25 15 -45 -7z"/>
<path d="M53574 23242 c-21 -14 -29 -47 -29 -122 0 -68 2 -75 21 -78 11 -2 26
3 32 10 9 11 18 139 13 186 -1 13 -20 16 -37 4z"/>
<path d="M15696 23191 c-20 -22 -34 -175 -17 -185 5 -3 21 -2 34 3 24 9 26 15
29 93 2 46 2 89 0 96 -6 18 -26 15 -46 -7z"/>
<path d="M6520 23129 c-6 -11 -14 -56 -16 -100 -6 -86 3 -102 44 -80 18 9 21
23 24 96 2 47 2 90 0 95 -6 18 -41 10 -52 -11z"/>
<path d="M31967 23017 c-14 -9 -19 -33 -23 -99 -3 -51 -1 -89 5 -92 5 -3 21
-2 34 3 24 9 26 15 29 89 4 116 -2 131 -45 99z"/>
<path d="M53571 22973 c-18 -15 -23 -32 -27 -100 -5 -87 0 -99 41 -89 22 6 24
11 27 88 3 88 0 118 -12 118 -4 0 -17 -8 -29 -17z"/>
<path d="M15701 22933 c-18 -15 -23 -31 -27 -99 -4 -62 -1 -84 9 -93 11 -9 19
-7 35 6 18 15 21 31 24 100 3 94 -7 114 -41 86z"/>
<path d="M6532 22873 c-27 -24 -43 -172 -19 -191 11 -10 19 -9 35 5 18 15 22
31 24 100 2 93 -7 114 -40 86z"/>
<path d="M31974 22762 c-21 -14 -29 -47 -29 -122 0 -68 2 -75 21 -78 11 -2 26
3 32 10 9 11 18 139 13 186 -1 13 -20 16 -37 4z"/>
<path d="M53567 22708 c-13 -10 -18 -34 -22 -101 -6 -94 2 -110 43 -88 17 9
21 23 24 93 4 92 1 108 -16 108 -7 0 -20 -6 -29 -12z"/>
<path d="M15698 22668 c-20 -20 -23 -33 -23 -108 0 -68 3 -85 15 -88 36 -7 49
20 52 111 5 102 -6 124 -44 85z"/>
<path d="M6518 22598 c-20 -34 -18 -182 2 -186 37 -7 49 20 52 113 3 86 2 90
-19 93 -14 2 -26 -5 -35 -20z"/>
<path d="M31971 22493 c-19 -15 -23 -31 -27 -105 -5 -87 -5 -88 18 -88 41 0
46 12 49 102 4 99 -5 119 -40 91z"/>
<path d="M53564 22437 c-15 -18 -19 -41 -19 -103 0 -72 2 -79 21 -82 33 -5 42
18 46 113 3 77 1 90 -13 93 -9 2 -25 -8 -35 -21z"/>
<path d="M15696 22401 c-24 -26 -34 -179 -12 -187 8 -3 23 -1 34 5 17 9 21 23
24 88 2 43 2 86 -1 96 -4 22 -24 22 -45 -2z"/>
<path d="M6523 22337 c-14 -18 -18 -41 -18 -103 0 -72 2 -79 21 -82 11 -2 26
3 32 10 9 11 16 108 13 181 -1 24 -26 21 -48 -6z"/>
<path d="M31968 22223 c-10 -11 -19 -49 -23 -100 -6 -70 -5 -84 8 -89 9 -3 24
-1 35 5 17 9 21 23 24 93 2 46 2 89 0 96 -6 17 -26 15 -44 -5z"/>
<path d="M53567 22177 c-14 -9 -19 -33 -23 -99 -3 -51 -1 -89 5 -92 5 -3 21
-2 34 3 24 9 26 15 29 89 4 116 -2 131 -45 99z"/>
<path d="M15701 22143 c-19 -15 -23 -31 -27 -106 -5 -75 -3 -88 11 -93 10 -4
25 1 36 13 17 16 20 34 21 102 2 92 -8 111 -41 84z"/>
<path d="M6521 22076 c-15 -18 -24 -166 -12 -186 8 -12 13 -12 35 0 23 12 26
20 27 64 0 28 1 69 2 91 2 34 -1 40 -19 43 -11 2 -26 -4 -33 -12z"/>
<path d="M31966 21961 c-24 -26 -34 -186 -12 -194 8 -3 24 2 35 11 17 14 21
30 22 97 1 44 1 86 0 93 -2 18 -25 15 -45 -7z"/>
<path d="M53566 21914 c-9 -8 -16 -18 -16 -22 -1 -4 -3 -42 -6 -85 -4 -66 -2
-78 12 -84 36 -13 49 10 54 98 3 46 4 90 2 97 -6 17 -27 15 -46 -4z"/>
<path d="M15690 21869 c-6 -11 -14 -56 -16 -100 -6 -86 3 -102 44 -80 18 9 21
23 24 96 2 47 2 90 0 95 -6 18 -41 10 -52 -11z"/>
<path d="M6522 21809 c-8 -12 -16 -57 -19 -100 -5 -85 4 -102 45 -80 15 8 20
25 26 89 3 44 3 87 0 96 -9 23 -37 20 -52 -5z"/>
<path d="M31968 21698 c-12 -9 -18 -38 -23 -99 -8 -94 -3 -105 38 -90 24 9 26
15 29 89 4 115 -3 132 -44 100z"/>
<path d="M53571 21653 c-18 -15 -23 -32 -27 -105 -5 -87 -5 -88 18 -88 41 0
46 12 48 100 4 124 3 127 -39 93z"/>
<path d="M15702 21613 c-27 -24 -43 -172 -19 -191 11 -10 19 -9 35 5 18 15 22
31 24 100 2 93 -7 114 -40 86z"/>
<path d="M31971 21433 c-18 -15 -23 -31 -27 -99 -4 -62 -1 -84 9 -93 11 -9 19
-7 35 6 18 15 21 31 24 100 3 94 -7 114 -41 86z"/>
<path d="M53567 21388 c-25 -18 -36 -185 -14 -194 9 -3 24 -1 35 5 17 9 21 23
24 93 4 92 1 108 -16 108 -7 0 -20 -6 -29 -12z"/>
<path d="M15688 21338 c-20 -34 -18 -182 2 -186 37 -7 49 20 52 113 3 86 2 90
-19 93 -14 2 -26 -5 -35 -20z"/>
<path d="M31968 21168 c-20 -20 -23 -33 -23 -108 0 -85 0 -85 25 -82 13 1 28
6 31 10 4 4 9 47 11 95 5 102 -6 124 -44 85z"/>
<path d="M53566 21121 c-12 -13 -18 -43 -22 -105 -5 -86 -5 -86 19 -86 14 0
29 6 35 13 8 10 17 135 13 185 -1 18 -25 15 -45 -7z"/>
<path d="M15693 21077 c-14 -18 -18 -41 -18 -103 0 -72 2 -79 21 -82 11 -2 26
3 32 10 9 11 16 108 13 181 -1 24 -26 21 -48 -6z"/>
<path d="M31966 20901 c-24 -26 -34 -179 -12 -187 8 -3 23 -1 34 5 17 9 21 23
24 90 2 43 2 86 0 95 -5 21 -25 20 -46 -3z"/>
<path d="M53567 20857 c-14 -9 -19 -33 -23 -99 -3 -51 -1 -89 5 -92 5 -3 21
-2 34 3 24 9 26 15 29 89 4 116 -2 131 -45 99z"/>
<path d="M15669 20828 c-6 -152 -4 -173 17 -176 31 -4 41 16 46 93 7 87 4 95
-33 95 -16 0 -29 -5 -30 -12z"/>
<path d="M31971 20643 c-18 -15 -23 -31 -27 -106 -5 -75 -3 -88 11 -93 34 -13
53 25 57 114 5 94 -5 114 -41 85z"/>
<path d="M53574 20602 c-21 -14 -29 -47 -29 -122 0 -68 2 -75 21 -78 11 -2 26
3 32 10 9 11 18 139 13 186 -1 13 -20 16 -37 4z"/>
<path d="M15681 20576 c-15 -18 -26 -182 -12 -190 5 -3 21 -2 34 3 24 9 26 15
29 93 2 46 2 89 0 96 -5 16 -37 15 -51 -2z"/>
<path d="M31966 20371 c-20 -22 -34 -175 -17 -185 5 -3 21 -2 34 3 24 9 26 15
29 93 2 46 2 89 0 96 -6 18 -26 15 -46 -7z"/>
<path d="M53571 20333 c-19 -15 -23 -31 -27 -105 -5 -87 -5 -88 18 -88 41 0
46 12 49 102 4 99 -5 119 -40 91z"/>
<path d="M15694 20322 c-21 -14 -29 -47 -29 -122 0 -68 2 -75 21 -78 11 -2 26
3 32 10 9 11 18 139 13 186 -1 13 -20 16 -37 4z"/>
<path d="M31971 20113 c-18 -15 -23 -31 -27 -99 -4 -62 -1 -84 9 -93 11 -9 19
-7 35 6 18 15 21 31 24 100 3 94 -7 114 -41 86z"/>
<path d="M53568 20063 c-10 -11 -19 -49 -23 -100 -6 -70 -5 -84 8 -89 9 -3 24
-1 35 5 17 9 21 23 24 93 2 46 2 89 0 96 -6 17 -26 15 -44 -5z"/>
<path d="M15691 20053 c-18 -15 -23 -32 -27 -100 -5 -87 0 -99 41 -89 22 6 24
11 27 88 3 88 0 118 -12 118 -4 0 -17 -8 -29 -17z"/>
<path d="M31968 19848 c-20 -20 -23 -33 -23 -108 0 -68 3 -85 15 -88 36 -7 49
20 52 111 5 102 -6 124 -44 85z"/>
<path d="M53566 19801 c-24 -26 -34 -186 -12 -194 8 -3 24 2 35 11 17 14 21
30 22 97 1 44 1 86 0 93 -2 18 -25 15 -45 -7z"/>
<path d="M15687 19788 c-13 -10 -18 -34 -22 -101 -6 -94 2 -110 43 -88 17 9
21 23 24 93 4 92 1 108 -16 108 -7 0 -20 -6 -29 -12z"/>
<path d="M31966 19581 c-24 -26 -34 -179 -12 -187 8 -3 23 -1 34 5 17 9 21 23
24 88 2 43 2 86 -1 96 -4 22 -24 22 -45 -2z"/>
<path d="M53568 19538 c-12 -9 -18 -38 -23 -99 -8 -94 -3 -105 38 -90 24 9 26
15 29 89 4 115 -3 132 -44 100z"/>
<path d="M15684 19517 c-15 -18 -19 -41 -19 -103 0 -72 2 -79 21 -82 33 -5 42
18 46 113 3 77 1 90 -13 93 -9 2 -25 -8 -35 -21z"/>
<path d="M31971 19323 c-19 -15 -23 -31 -27 -106 -5 -75 -3 -88 11 -93 10 -4
25 1 36 13 17 16 20 34 21 102 2 92 -8 111 -41 84z"/>
<path d="M33650 19284 c-100 -10 -243 -55 -362 -113 -142 -70 -246 -149 -394
-296 -254 -252 -455 -558 -649 -990 -67 -150 -71 -160 -125 -300 -64 -167 -73
-189 -82 -200 -13 -15 -28 14 -28 57 0 48 -12 54 -49 22 -26 -21 -34 -24 -46
-14 -8 7 -15 21 -15 32 0 10 -9 44 -20 76 -215 627 -526 1009 -935 1150 -99
34 -259 62 -354 62 -130 0 -357 -44 -491 -95 -386 -146 -586 -303 -671 -526
-27 -70 -30 -218 -6 -302 75 -268 345 -557 817 -874 125 -84 416 -260 481
-291 26 -13 54 -31 64 -42 16 -18 16 -20 2 -26 -9 -3 -31 -1 -49 4 -93 29
-618 114 -893 144 -165 18 -650 18 -730 -1 -104 -23 -158 -42 -222 -77 -71
-39 -105 -77 -140 -153 -23 -49 -25 -64 -20 -131 3 -41 12 -91 20 -110 50
-127 76 -155 148 -155 95 0 132 77 84 180 -36 80 -41 110 -21 140 46 69 204
105 471 105 105 0 231 -5 280 -10 50 -6 133 -15 185 -20 105 -11 242 -30 395
-55 55 -9 124 -21 153 -25 29 -5 74 -13 100 -19 26 -5 85 -17 132 -26 47 -9
114 -23 150 -31 36 -7 97 -20 135 -28 261 -56 347 -79 359 -99 19 -30 -15 -49
-111 -63 -164 -24 -225 -34 -266 -44 -23 -5 -76 -16 -117 -25 -74 -16 -140
-32 -250 -62 -72 -19 -306 -91 -350 -108 -133 -50 -262 -101 -305 -120 -27
-12 -75 -33 -105 -46 -30 -12 -118 -54 -195 -93 -889 -446 -1644 -1159 -2144
-2026 -59 -101 -214 -407 -251 -495 -50 -117 -64 -151 -85 -205 -9 -25 -22
-56 -27 -70 -50 -125 -171 -530 -189 -632 -4 -27 -10 -52 -13 -56 -3 -5 -10
-37 -17 -73 -6 -35 -17 -98 -25 -139 -87 -477 -102 -1050 -38 -1540 29 -231
53 -357 110 -597 16 -66 22 -88 59 -218 22 -75 99 -310 115 -350 7 -16 16 -39
21 -50 201 -495 402 -857 682 -1230 191 -255 546 -635 752 -805 50 -41 95 -80
101 -86 65 -61 360 -273 509 -367 300 -188 654 -364 950 -472 55 -20 116 -42
135 -50 118 -45 440 -132 625 -169 227 -45 332 -61 560 -86 157 -17 620 -24
800 -11 267 19 341 28 575 67 136 23 428 89 500 113 14 4 52 16 85 26 127 38
361 118 420 144 11 5 72 30 135 57 183 76 466 223 660 342 585 359 1124 865
1513 1418 240 343 470 776 608 1145 41 110 117 340 135 409 145 543 189 870
189 1415 0 389 -12 541 -71 890 -22 129 -90 435 -113 505 -5 14 -16 52 -26 85
-44 149 -122 363 -196 540 -28 68 -80 179 -144 306 -65 130 -86 170 -132 244
-7 11 -22 38 -34 60 -39 73 -210 328 -302 450 -329 437 -759 851 -1193 1147
-418 286 -833 494 -1279 642 -215 72 -345 108 -540 151 -44 10 -107 24 -141
31 -33 8 -70 14 -82 14 -11 0 -44 5 -72 11 -78 17 -64 37 45 65 50 12 140 37
200 54 61 17 124 35 140 39 17 4 48 14 70 21 43 14 89 28 175 53 69 21 385
123 425 137 17 6 71 25 120 42 83 28 292 107 340 128 11 5 43 18 70 30 445
188 689 354 770 527 61 128 9 273 -133 370 -50 34 -72 43 -105 43 -67 -1 -107
-44 -107 -116 0 -31 7 -43 41 -73 105 -93 111 -100 103 -123 -39 -126 -375
-320 -884 -513 -210 -80 -489 -173 -745 -250 -49 -15 -110 -33 -135 -41 -60
-19 -289 -85 -317 -91 -39 -9 -27 22 25 63 71 57 272 225 312 260 19 17 100
89 180 160 191 169 548 523 682 677 392 448 578 793 578 1075 0 279 -186 465
-555 554 -80 19 -297 31 -395 22z m352 -240 c300 -73 418 -219 363 -446 -67
-272 -317 -630 -748 -1067 -220 -223 -604 -576 -750 -689 -19 -15 -88 -71
-153 -124 -177 -143 -285 -228 -292 -228 -4 0 -47 40 -97 88 -63 61 -111 98
-158 121 -38 19 -71 41 -74 48 -5 13 12 88 43 193 8 25 21 68 29 95 228 763
598 1442 954 1750 187 163 386 261 566 279 72 7 253 -4 317 -20z m-3292 -509
c214 -32 352 -105 520 -274 227 -230 415 -614 525 -1076 9 -38 20 -83 25 -100
5 -16 15 -68 24 -115 43 -232 44 -218 -26 -240 -66 -22 -152 -75 -218 -136
-46 -43 -64 -54 -80 -49 -70 22 -634 316 -793 414 -37 22 -70 41 -73 41 -2 0
-17 8 -32 19 -15 10 -88 58 -162 106 -301 195 -511 371 -643 538 -209 264
-198 443 35 617 165 123 425 225 648 255 125 17 139 17 250 0z"/>
<path d="M53571 19273 c-18 -15 -23 -31 -27 -99 -4 -62 -1 -84 9 -93 11 -9 19
-7 35 6 18 15 21 31 24 100 3 94 -7 114 -41 86z"/>
<path d="M15687 19257 c-14 -9 -19 -33 -23 -99 -3 -51 -1 -89 5 -92 5 -3 21
-2 34 3 24 9 26 15 29 89 4 116 -2 131 -45 99z"/>
<path d="M31960 19049 c-6 -11 -14 -56 -16 -100 -6 -86 3 -102 44 -80 18 9 21
23 24 96 2 47 2 90 0 95 -6 18 -41 10 -52 -11z"/>
<path d="M53568 19008 c-20 -20 -23 -33 -23 -108 0 -85 0 -85 25 -82 13 1 28
6 31 10 4 4 9 47 11 95 5 102 -6 124 -44 85z"/>
<path d="M15686 18994 c-9 -8 -16 -18 -16 -22 -1 -4 -3 -42 -6 -85 -4 -66 -2
-78 12 -84 36 -13 49 10 54 98 3 46 4 90 2 97 -6 17 -27 15 -46 -4z"/>
<path d="M31972 18793 c-27 -24 -43 -172 -19 -191 11 -10 19 -9 35 5 18 15 22
31 24 100 2 93 -7 114 -40 86z"/>
<path d="M53566 18741 c-24 -26 -34 -179 -12 -187 8 -3 23 -1 34 5 17 9 21 23
24 90 2 43 2 86 0 95 -5 21 -25 20 -46 -3z"/>
<path d="M15691 18733 c-18 -15 -23 -32 -27 -105 -5 -87 -5 -88 18 -88 41 0
46 12 48 100 4 124 3 127 -39 93z"/>
<path d="M31958 18518 c-20 -34 -18 -182 2 -186 37 -7 49 20 52 113 3 86 2 90
-19 93 -14 2 -26 -5 -35 -20z"/>
<path d="M53571 18483 c-18 -15 -23 -31 -27 -106 -5 -75 -3 -88 11 -93 34 -13
53 25 57 114 5 94 -5 114 -41 85z"/>
<path d="M15687 18468 c-25 -18 -36 -185 -14 -194 9 -3 24 -1 35 5 17 9 21 23
24 93 4 92 1 108 -16 108 -7 0 -20 -6 -29 -12z"/>
<path d="M31963 18257 c-14 -18 -18 -41 -18 -103 0 -72 2 -79 21 -82 11 -2 26
3 32 10 9 11 16 108 13 181 -1 24 -26 21 -48 -6z"/>
<path d="M53566 18211 c-20 -22 -34 -175 -17 -185 5 -3 21 -2 34 3 24 9 26 15
29 93 2 46 2 89 0 96 -6 18 -26 15 -46 -7z"/>
<path d="M15686 18201 c-12 -13 -18 -43 -22 -105 -5 -86 -5 -86 19 -86 14 0
29 6 35 13 8 10 17 135 13 185 -1 18 -25 15 -45 -7z"/>
<path d="M31961 17996 c-15 -18 -24 -166 -12 -186 8 -12 13 -12 35 0 23 12 26
20 27 64 0 28 1 69 2 91 2 34 -1 40 -19 43 -11 2 -26 -4 -33 -12z"/>
<path d="M53571 17953 c-18 -15 -23 -31 -27 -99 -4 -62 -1 -84 9 -93 11 -9 19
-7 35 6 18 15 21 31 24 100 3 94 -7 114 -41 86z"/>
<path d="M15687 17937 c-14 -9 -19 -33 -23 -99 -3 -51 -1 -89 5 -92 5 -3 21
-2 34 3 24 9 26 15 29 89 4 116 -2 131 -45 99z"/>
<path d="M31962 17729 c-8 -12 -16 -57 -19 -100 -5 -85 4 -102 45 -80 15 8 20
25 26 89 3 44 3 87 0 96 -9 23 -37 20 -52 -5z"/>
<path d="M53568 17688 c-20 -20 -23 -33 -23 -108 0 -68 3 -85 15 -88 36 -7 49
20 52 111 5 102 -6 124 -44 85z"/>
<path d="M15694 17682 c-21 -14 -29 -47 -29 -122 0 -68 2 -75 21 -78 11 -2 26
3 32 10 9 11 18 139 13 186 -1 13 -20 16 -37 4z"/>
<path d="M53566 17421 c-24 -26 -34 -179 -12 -187 8 -3 23 -1 34 5 17 9 21 23
24 88 2 43 2 86 -1 96 -4 22 -24 22 -45 -2z"/>
<path d="M15691 17413 c-19 -15 -23 -31 -27 -105 -5 -87 -5 -88 18 -88 41 0
46 12 49 102 4 99 -5 119 -40 91z"/>
<path d="M53571 17163 c-19 -15 -23 -31 -27 -106 -5 -75 -3 -88 11 -93 10 -4
25 1 36 13 17 16 20 34 21 102 2 92 -8 111 -41 84z"/>
<path d="M15688 17143 c-10 -11 -19 -49 -23 -100 -6 -70 -5 -84 8 -89 9 -3 24
-1 35 5 17 9 21 23 24 93 2 46 2 89 0 96 -6 17 -26 15 -44 -5z"/>
<path d="M55250 17124 c-100 -10 -243 -55 -362 -113 -142 -70 -246 -149 -394
-296 -254 -252 -455 -558 -649 -990 -67 -150 -71 -160 -125 -300 -64 -167 -73
-189 -82 -200 -13 -15 -28 14 -28 57 0 48 -12 54 -49 22 -26 -21 -34 -24 -46
-14 -8 7 -15 21 -15 32 0 10 -9 44 -20 76 -215 627 -526 1009 -935 1150 -99
34 -259 62 -354 62 -130 0 -357 -44 -491 -95 -386 -146 -586 -303 -671 -526
-27 -70 -30 -218 -6 -302 75 -268 345 -557 817 -874 125 -84 416 -260 481
-291 26 -13 54 -31 64 -42 16 -18 16 -20 2 -26 -9 -3 -31 -1 -49 4 -93 29
-618 114 -893 144 -165 18 -650 18 -730 -1 -104 -23 -158 -42 -222 -77 -71
-39 -105 -77 -140 -153 -23 -49 -25 -64 -20 -131 3 -41 12 -91 20 -110 50
-127 76 -155 148 -155 95 0 132 77 84 180 -36 80 -41 110 -21 140 46 69 204
105 471 105 105 0 231 -5 280 -10 50 -6 133 -15 185 -20 105 -11 242 -30 395
-55 55 -9 124 -21 153 -25 29 -5 74 -13 100 -19 26 -5 85 -17 132 -26 47 -9
114 -23 150 -31 36 -7 97 -20 135 -28 261 -56 347 -79 359 -99 19 -30 -15 -49
-111 -63 -164 -24 -225 -34 -266 -44 -23 -5 -76 -16 -117 -25 -74 -16 -140
-32 -250 -62 -72 -19 -306 -91 -350 -108 -133 -50 -262 -101 -305 -120 -27
-12 -75 -33 -105 -46 -30 -12 -118 -54 -195 -93 -889 -446 -1644 -1159 -2144
-2026 -59 -101 -214 -407 -251 -495 -50 -117 -64 -151 -85 -205 -9 -25 -22
-56 -27 -70 -50 -125 -171 -530 -189 -632 -4 -27 -10 -52 -13 -56 -3 -5 -10
-37 -17 -73 -6 -35 -17 -98 -25 -139 -87 -477 -102 -1050 -38 -1540 29 -231
53 -357 110 -597 16 -66 22 -88 59 -218 22 -75 99 -310 115 -350 7 -16 16 -39
21 -50 201 -495 402 -857 682 -1230 191 -255 546 -635 752 -805 50 -41 95 -80
101 -86 65 -61 360 -273 509 -367 300 -188 654 -364 950 -472 55 -20 116 -42
135 -50 118 -45 440 -132 625 -169 227 -45 332 -61 560 -86 157 -17 620 -24
800 -11 267 19 341 28 575 67 136 23 428 89 500 113 14 4 52 16 85 26 127 38
361 118 420 144 11 5 72 30 135 57 183 76 466 223 660 342 585 359 1124 865
1513 1418 240 343 470 776 608 1145 41 110 117 340 135 409 145 543 189 870
189 1415 0 389 -12 541 -71 890 -22 129 -90 435 -113 505 -5 14 -16 52 -26 85
-44 149 -122 363 -196 540 -28 68 -80 179 -144 306 -65 130 -86 170 -132 244
-7 11 -22 38 -34 60 -39 73 -210 328 -302 450 -329 437 -759 851 -1193 1147
-418 286 -833 494 -1279 642 -215 72 -345 108 -540 151 -44 10 -107 24 -141
31 -33 8 -70 14 -82 14 -11 0 -44 5 -72 11 -78 17 -64 37 45 65 50 12 140 37
200 54 61 17 124 35 140 39 17 4 48 14 70 21 43 14 89 28 175 53 69 21 385
123 425 137 17 6 71 25 120 42 83 28 292 107 340 128 11 5 43 18 70 30 445
188 689 354 770 527 61 128 9 273 -133 370 -50 34 -72 43 -105 43 -67 -1 -107
-44 -107 -116 0 -31 7 -43 41 -73 105 -93 111 -100 103 -123 -39 -126 -375
-320 -884 -513 -210 -80 -489 -173 -745 -250 -49 -15 -110 -33 -135 -41 -60
-19 -289 -85 -317 -91 -39 -9 -27 22 25 63 71 57 272 225 312 260 19 17 100
89 180 160 191 169 548 523 682 677 392 448 578 793 578 1075 0 279 -186 465
-555 554 -80 19 -297 31 -395 22z m352 -240 c300 -73 418 -219 363 -446 -67
-272 -317 -630 -748 -1067 -220 -223 -604 -576 -750 -689 -19 -15 -88 -71
-153 -124 -177 -143 -285 -228 -292 -228 -4 0 -47 40 -97 88 -63 61 -111 98
-158 121 -38 19 -71 41 -74 48 -5 13 12 88 43 193 8 25 21 68 29 95 228 763
598 1442 954 1750 187 163 386 261 566 279 72 7 253 -4 317 -20z m-3292 -509
c214 -32 352 -105 520 -274 227 -230 415 -614 525 -1076 9 -38 20 -83 25 -100
5 -16 15 -68 24 -115 43 -232 44 -218 -26 -240 -66 -22 -152 -75 -218 -136
-46 -43 -64 -54 -80 -49 -70 22 -634 316 -793 414 -37 22 -70 41 -73 41 -2 0
-17 8 -32 19 -15 10 -88 58 -162 106 -301 195 -511 371 -643 538 -209 264
-198 443 35 617 165 123 425 225 648 255 125 17 139 17 250 0z"/>
<path d="M53560 16889 c-6 -11 -14 -56 -16 -100 -6 -86 3 -102 44 -80 18 9 21
23 24 96 2 47 2 90 0 95 -6 18 -41 10 -52 -11z"/>
<path d="M15686 16881 c-24 -26 -34 -186 -12 -194 8 -3 24 2 35 11 17 14 21
30 22 97 1 44 1 86 0 93 -2 18 -25 15 -45 -7z"/>
<path d="M53572 16633 c-27 -24 -43 -172 -19 -191 11 -10 19 -9 35 5 18 15 22
31 24 100 2 93 -7 114 -40 86z"/>
<path d="M15688 16618 c-12 -9 -18 -38 -23 -99 -8 -94 -3 -105 38 -90 24 9 26
15 29 89 4 115 -3 132 -44 100z"/>
<path d="M53558 16358 c-20 -34 -18 -182 2 -186 37 -7 49 20 52 113 3 86 2 90
-19 93 -14 2 -26 -5 -35 -20z"/>
<path d="M15691 16353 c-18 -15 -23 -31 -27 -99 -4 -62 -1 -84 9 -93 11 -9 19
-7 35 6 18 15 21 31 24 100 3 94 -7 114 -41 86z"/>
<path d="M53563 16097 c-14 -18 -18 -41 -18 -103 0 -72 2 -79 21 -82 11 -2 26
3 32 10 9 11 16 108 13 181 -1 24 -26 21 -48 -6z"/>
<path d="M15688 16088 c-20 -20 -23 -33 -23 -108 0 -85 0 -85 25 -82 13 1 28
6 31 10 4 4 9 47 11 95 5 102 -6 124 -44 85z"/>
<path d="M53561 15836 c-15 -18 -24 -166 -12 -186 8 -12 13 -12 35 0 23 12 26
20 27 64 0 28 1 69 2 91 2 34 -1 40 -19 43 -11 2 -26 -4 -33 -12z"/>
<path d="M15686 15821 c-24 -26 -34 -179 -12 -187 8 -3 23 -1 34 5 17 9 21 23
24 90 2 43 2 86 0 95 -5 21 -25 20 -46 -3z"/>
<path d="M53562 15569 c-8 -12 -16 -57 -19 -100 -5 -85 4 -102 45 -80 15 8 20
25 26 89 3 44 3 87 0 96 -9 23 -37 20 -52 -5z"/>
<path d="M15691 15563 c-18 -15 -23 -31 -27 -106 -5 -75 -3 -88 11 -93 34 -13
53 25 57 114 5 94 -5 114 -41 85z"/>
<path d="M15686 15291 c-20 -22 -34 -175 -17 -185 5 -3 21 -2 34 3 24 9 26 15
29 93 2 46 2 89 0 96 -6 18 -26 15 -46 -7z"/>
<path d="M15691 15033 c-18 -15 -23 -31 -27 -99 -4 -62 -1 -84 9 -93 11 -9 19
-7 35 6 18 15 21 31 24 100 3 94 -7 114 -41 86z"/>
<path d="M15688 14768 c-20 -20 -23 -33 -23 -108 0 -68 3 -85 15 -88 36 -7 49
20 52 111 5 102 -6 124 -44 85z"/>
<path d="M15686 14501 c-24 -26 -34 -179 -12 -187 8 -3 23 -1 34 5 17 9 21 23
24 88 2 43 2 86 -1 96 -4 22 -24 22 -45 -2z"/>
<path d="M15691 14243 c-19 -15 -23 -31 -27 -106 -5 -75 -3 -88 11 -93 10 -4
25 1 36 13 17 16 20 34 21 102 2 92 -8 111 -41 84z"/>
<path d="M17370 14204 c-100 -10 -243 -55 -362 -113 -142 -70 -246 -149 -394
-296 -254 -252 -455 -558 -649 -990 -67 -150 -71 -160 -125 -300 -64 -167 -73
-189 -82 -200 -13 -15 -28 14 -28 57 0 48 -12 54 -49 22 -26 -21 -34 -24 -46
-14 -8 7 -15 21 -15 32 0 10 -9 44 -20 76 -215 627 -526 1009 -935 1150 -99
34 -259 62 -354 62 -130 0 -357 -44 -491 -95 -386 -146 -586 -303 -671 -526
-27 -70 -30 -218 -6 -302 75 -268 345 -557 817 -874 125 -84 416 -260 481
-291 26 -13 54 -31 64 -42 16 -18 16 -20 2 -26 -9 -3 -31 -1 -49 4 -93 29
-618 114 -893 144 -165 18 -650 18 -730 -1 -104 -23 -158 -42 -222 -77 -71
-39 -105 -77 -140 -153 -23 -49 -25 -64 -20 -131 3 -41 12 -91 20 -110 50
-127 76 -155 148 -155 95 0 132 77 84 180 -36 80 -41 110 -21 140 46 69 204
105 471 105 105 0 231 -5 280 -10 50 -6 133 -15 185 -20 105 -11 242 -30 395
-55 55 -9 124 -21 153 -25 29 -5 74 -13 100 -19 26 -5 85 -17 132 -26 47 -9
114 -23 150 -31 36 -7 97 -20 135 -28 261 -56 347 -79 359 -99 19 -30 -15 -49
-111 -63 -164 -24 -225 -34 -266 -44 -23 -5 -76 -16 -117 -25 -74 -16 -140
-32 -250 -62 -72 -19 -306 -91 -350 -108 -133 -50 -262 -101 -305 -120 -27
-12 -75 -33 -105 -46 -30 -12 -118 -54 -195 -93 -889 -446 -1644 -1159 -2144
-2026 -59 -101 -214 -407 -251 -495 -50 -117 -64 -151 -85 -205 -9 -25 -22
-56 -27 -70 -50 -125 -171 -530 -189 -632 -4 -27 -10 -52 -13 -56 -3 -5 -10
-37 -17 -73 -6 -35 -17 -98 -25 -139 -87 -477 -102 -1050 -38 -1540 29 -231
53 -357 110 -597 16 -66 22 -88 59 -218 22 -75 99 -310 115 -350 7 -16 16 -39
21 -50 201 -495 402 -857 682 -1230 191 -255 546 -635 752 -805 50 -41 95 -80
101 -86 65 -61 360 -273 509 -367 300 -188 654 -364 950 -472 55 -20 116 -42
135 -50 118 -45 440 -132 625 -169 227 -45 332 -61 560 -86 157 -17 620 -24
800 -11 267 19 341 28 575 67 136 23 428 89 500 113 14 4 52 16 85 26 127 38
361 118 420 144 11 5 72 30 135 57 183 76 466 223 660 342 585 359 1124 865
1513 1418 240 343 470 776 608 1145 41 110 117 340 135 409 145 543 189 870
189 1415 0 389 -12 541 -71 890 -22 129 -90 435 -113 505 -5 14 -16 52 -26 85
-44 149 -122 363 -196 540 -28 68 -80 179 -144 306 -65 130 -86 170 -132 244
-7 11 -22 38 -34 60 -39 73 -210 328 -302 450 -329 437 -759 851 -1193 1147
-418 286 -833 494 -1279 642 -215 72 -345 108 -540 151 -44 10 -107 24 -141
31 -33 8 -70 14 -82 14 -11 0 -44 5 -72 11 -78 17 -64 37 45 65 50 12 140 37
200 54 61 17 124 35 140 39 17 4 48 14 70 21 43 14 89 28 175 53 69 21 385
123 425 137 17 6 71 25 120 42 83 28 292 107 340 128 11 5 43 18 70 30 445
188 689 354 770 527 61 128 9 273 -133 370 -50 34 -72 43 -105 43 -67 -1 -107
-44 -107 -116 0 -31 7 -43 41 -73 105 -93 111 -100 103 -123 -39 -126 -375
-320 -884 -513 -210 -80 -489 -173 -745 -250 -49 -15 -110 -33 -135 -41 -60
-19 -289 -85 -317 -91 -39 -9 -27 22 25 63 71 57 272 225 312 260 19 17 100
89 180 160 191 169 548 523 682 677 392 448 578 793 578 1075 0 279 -186 465
-555 554 -80 19 -297 31 -395 22z m352 -240 c300 -73 418 -219 363 -446 -67
-272 -317 -630 -748 -1067 -220 -223 -604 -576 -750 -689 -19 -15 -88 -71
-153 -124 -177 -143 -285 -228 -292 -228 -4 0 -47 40 -97 88 -63 61 -111 98
-158 121 -38 19 -71 41 -74 48 -5 13 12 88 43 193 8 25 21 68 29 95 228 763
598 1442 954 1750 187 163 386 261 566 279 72 7 253 -4 317 -20z m-3292 -509
c214 -32 352 -105 520 -274 227 -230 415 -614 525 -1076 9 -38 20 -83 25 -100
5 -16 15 -68 24 -115 43 -232 44 -218 -26 -240 -66 -22 -152 -75 -218 -136
-46 -43 -64 -54 -80 -49 -70 22 -634 316 -793 414 -37 22 -70 41 -73 41 -2 0
-17 8 -32 19 -15 10 -88 58 -162 106 -301 195 -511 371 -643 538 -209 264
-198 443 35 617 165 123 425 225 648 255 125 17 139 17 250 0z"/>
<path d="M15680 13969 c-6 -11 -14 -56 -16 -100 -6 -86 3 -102 44 -80 18 9 21
23 24 96 2 47 2 90 0 95 -6 18 -41 10 -52 -11z"/>
<path d="M15692 13713 c-27 -24 -43 -172 -19 -191 11 -10 19 -9 35 5 18 15 22
31 24 100 2 93 -7 114 -40 86z"/>
<path d="M15678 13438 c-20 -34 -18 -182 2 -186 37 -7 49 20 52 113 3 86 2 90
-19 93 -14 2 -26 -5 -35 -20z"/>
<path d="M15683 13177 c-14 -18 -18 -41 -18 -103 0 -72 2 -79 21 -82 11 -2 26
3 32 10 9 11 16 108 13 181 -1 24 -26 21 -48 -6z"/>
<path d="M15681 12916 c-15 -18 -24 -166 -12 -186 8 -12 13 -12 35 0 23 12 26
20 27 64 0 28 1 69 2 91 2 34 -1 40 -19 43 -11 2 -26 -4 -33 -12z"/>
<path d="M15682 12649 c-8 -12 -16 -57 -19 -100 -5 -85 4 -102 45 -80 15 8 20
25 26 89 3 44 3 87 0 96 -9 23 -37 20 -52 -5z"/>
</g>
</svg>
