<svg width="589" height="497" viewBox="0 0 589 497" fill="none" xmlns="http://www.w3.org/2000/svg">
<g clip-path="url(#clip0)">
<rect x="384.781" y="429.887" width="54.5267" height="54.5267" rx="8.26162" transform="rotate(165 384.781 429.887)" fill="url(#paint0_linear)"/>
<path d="M324.609 416.874L377.483 402.83M343.611 384.654L357.838 437.235" stroke="url(#paint1_linear)" stroke-width="8.26162"/>
<path d="M337.431 374.998C337.65 375.162 338.141 375.745 338.728 377.054C339.271 378.267 339.741 379.747 340.127 381.245C340.336 382.055 340.514 382.846 340.663 383.568C339.929 383.629 339.12 383.682 338.284 383.711C336.737 383.764 335.185 383.732 333.868 383.554C332.447 383.362 331.748 383.056 331.53 382.892C329.35 381.262 328.904 378.174 330.533 375.994C332.163 373.815 335.251 373.369 337.431 374.998Z" stroke="#FAC93D" stroke-width="6.6093"/>
<path d="M354.375 377.558C354.244 377.797 353.734 378.365 352.519 379.127C351.393 379.833 349.992 380.503 348.562 381.093C347.788 381.412 347.03 381.698 346.336 381.945C346.173 381.226 346.009 380.433 345.865 379.608C345.598 378.084 345.415 376.542 345.409 375.213C345.402 373.779 345.609 373.045 345.741 372.806C347.053 370.421 350.05 369.552 352.434 370.865C354.819 372.177 355.688 375.174 354.375 377.558Z" stroke="#FAC93D" stroke-width="6.6093"/>
<rect width="32.5199" height="33.5624" rx="5" transform="matrix(-0.902684 -0.457316 0.447191 -0.878727 149.709 210.367)" fill="url(#paint2_linear)"/>
<path d="M127.965 180.217L157.411 195.189M149.569 173.33L134.633 202.804" stroke="url(#paint3_linear)" stroke-width="5"/>
<path d="M150.618 166.507C150.656 166.702 150.632 167.186 150.364 168.011C150.114 168.782 149.722 169.641 149.286 170.473C149.067 170.892 148.842 171.293 148.629 171.657C148.294 171.403 147.934 171.12 147.572 170.819C146.853 170.22 146.165 169.578 145.64 168.964C145.079 168.306 144.872 167.868 144.834 167.674C144.494 165.956 145.625 164.432 147.139 164.126C148.654 163.821 150.278 164.79 150.618 166.507Z" stroke="#FAC93D" stroke-width="4"/>
<path d="M157.251 174.534C157.124 174.579 156.685 174.634 155.828 174.488C155.039 174.354 154.14 174.093 153.257 173.784C152.751 173.606 152.268 173.419 151.836 173.241C152.064 172.833 152.326 172.384 152.612 171.928C153.111 171.134 153.653 170.368 154.188 169.769C154.767 169.12 155.145 168.889 155.273 168.844C156.743 168.329 158.478 169.074 159.048 170.712C159.618 172.35 158.721 174.018 157.251 174.534Z" stroke="#FAC93D" stroke-width="4"/>
<rect x="357.625" y="208.654" width="42.8693" height="56.947" rx="4" transform="rotate(8.71162 357.625 208.654)" fill="url(#paint4_linear)"/>
<line x1="379.782" y1="212.034" x2="370.188" y2="268.642" stroke="url(#paint5_linear)" stroke-width="6"/>
<path d="M380.151 200.982C380.436 201.503 380.612 202.429 380.604 203.736C380.597 204.996 380.423 206.417 380.182 207.778C379.943 209.132 379.646 210.387 379.407 211.307C379.404 211.318 379.401 211.329 379.399 211.341C379.388 211.337 379.376 211.333 379.365 211.33C378.462 211.037 377.243 210.613 375.973 210.087C374.696 209.558 373.404 208.941 372.338 208.27C371.231 207.574 370.545 206.929 370.259 206.408C368.761 203.676 369.761 200.248 372.492 198.749C375.224 197.251 378.652 198.251 380.151 200.982Z" stroke="#FAC93D" stroke-width="3"/>
<path d="M392.227 210.844C391.751 211.199 390.858 211.501 389.562 211.674C388.314 211.841 386.883 211.865 385.501 211.816C384.127 211.766 382.843 211.646 381.899 211.537C381.887 211.535 381.876 211.534 381.864 211.533C381.866 211.521 381.868 211.51 381.87 211.498C382.035 210.563 382.287 209.297 382.632 207.966C382.979 206.628 383.411 205.264 383.928 204.115C384.464 202.922 385.008 202.153 385.485 201.798C387.983 199.937 391.517 200.452 393.379 202.95C395.24 205.448 394.725 208.982 392.227 210.844Z" stroke="#FAC93D" stroke-width="3"/>
<rect x="167" y="312.342" width="58.328" height="35.2347" rx="5" transform="rotate(-8.16299 167 312.342)" fill="url(#paint6_linear)"/>
<path d="M195.42 308.11L199.696 343.37" stroke="url(#paint7_linear)" stroke-width="12"/>
<path d="M191.729 297.968C192.087 298.324 192.511 299.108 192.885 300.398C193.241 301.626 193.484 303.07 193.645 304.489C193.783 305.702 193.857 306.858 193.896 307.782C192.971 307.751 191.815 307.687 190.601 307.559C189.181 307.41 187.735 307.179 186.503 306.834C185.211 306.471 184.423 306.053 184.064 305.698C181.93 303.581 181.915 300.135 184.032 298.001C186.148 295.867 189.594 295.852 191.729 297.968Z" stroke="#FAC93D" stroke-width="4"/>
<path d="M206.673 303.678C206.37 304.083 205.652 304.612 204.427 305.16C203.26 305.682 201.863 306.123 200.48 306.479C199.298 306.783 198.164 307.016 197.253 307.183C197.157 306.263 197.06 305.109 197.018 303.889C196.97 302.462 196.998 300.998 197.17 299.73C197.35 298.4 197.655 297.562 197.957 297.157C199.758 294.751 203.169 294.259 205.576 296.06C207.982 297.861 208.474 301.272 206.673 303.678Z" stroke="#FAC93D" stroke-width="4"/>
<rect x="490.848" y="398.417" width="95.7158" height="71.8708" rx="5" transform="rotate(19.2307 490.848 398.417)" fill="url(#paint8_linear)"/>
<rect x="488.17" y="389.029" width="107.127" height="17.882" rx="5" transform="rotate(19.2307 488.17 389.029)" fill="#6AA4FB"/>
<path d="M539.519 406.673L512.048 482.316" stroke="url(#paint9_linear)" stroke-width="12"/>
<path d="M541.046 392.132C541.288 392.834 541.311 394.027 541.017 395.675C540.735 397.26 540.207 399.014 539.607 400.681C539.017 402.323 538.375 403.83 537.876 404.937C536.801 404.372 535.368 403.577 533.893 402.646C532.395 401.701 530.9 400.642 529.702 399.566C528.457 398.447 527.741 397.492 527.5 396.79C526.214 393.049 528.203 388.974 531.944 387.687C535.685 386.401 539.76 388.391 541.046 392.132Z" stroke="#FAC93D" stroke-width="4"/>
<path d="M554.207 407.139C553.545 407.476 552.366 407.664 550.694 407.601C549.084 407.541 547.274 407.261 545.54 406.898C543.833 406.54 542.251 406.113 541.085 405.772C541.497 404.629 542.085 403.1 542.803 401.51C543.532 399.896 544.374 398.269 545.274 396.933C546.21 395.545 547.057 394.704 547.719 394.368C551.245 392.576 555.557 393.983 557.348 397.51C559.14 401.036 557.733 405.348 554.207 407.139Z" stroke="#FAC93D" stroke-width="4"/>
<rect x="91.9224" y="24.9278" width="63.19" height="27.9312" rx="5" transform="rotate(-21.1382 91.9224 24.9278)" fill="url(#paint10_linear)"/>
<path d="M95.9503 36.416L156.575 13.4007M121.635 13.3898L131.45 40.8065" stroke="url(#paint11_linear)" stroke-width="5"/>
<path d="M117.625 7.99106C117.764 8.08099 118.084 8.41341 118.491 9.17981C118.868 9.89046 119.211 10.7651 119.505 11.6543C119.664 12.1351 119.804 12.6052 119.923 13.0351C119.482 13.102 118.995 13.1665 118.492 13.2177C117.56 13.3124 116.621 13.3558 115.819 13.3014C114.953 13.2428 114.519 13.0859 114.38 12.996C112.998 12.0999 112.604 10.2531 113.5 8.87108C114.396 7.48902 116.243 7.09502 117.625 7.99106Z" stroke="#FAC93D" stroke-width="4"/>
<path d="M127.96 8.85248C127.89 9.00231 127.605 9.36574 126.903 9.8747C126.251 10.3466 125.432 10.8078 124.592 11.2218C124.138 11.4457 123.692 11.6489 123.283 11.8262C123.155 11.3987 123.024 10.9262 122.904 10.4343C122.681 9.52466 122.508 8.60109 122.451 7.79856C122.389 6.93308 122.485 6.48126 122.554 6.33143C123.251 4.83867 125.025 4.1929 126.518 4.88907C128.011 5.58524 128.656 7.35972 127.96 8.85248Z" stroke="#FAC93D" stroke-width="4"/>
</g>
<defs>
<linearGradient id="paint0_linear" x1="412.045" y1="429.887" x2="412.045" y2="484.414" gradientUnits="userSpaceOnUse">
<stop stop-color="#F08972"/>
<stop offset="1" stop-color="#DA7C68"/>
</linearGradient>
<linearGradient id="paint1_linear" x1="352.778" y1="390.743" x2="351.009" y2="436.974" gradientUnits="userSpaceOnUse">
<stop stop-color="#F7C63B"/>
<stop offset="1" stop-color="#D9A122"/>
</linearGradient>
<linearGradient id="paint2_linear" x1="16.2599" y1="0" x2="16.2599" y2="33.5624" gradientUnits="userSpaceOnUse">
<stop stop-color="#F08972"/>
<stop offset="1" stop-color="#DA7C68"/>
</linearGradient>
<linearGradient id="paint3_linear" x1="151.217" y1="179.774" x2="131.674" y2="199.935" gradientUnits="userSpaceOnUse">
<stop stop-color="#F7C63B"/>
<stop offset="1" stop-color="#D9A122"/>
</linearGradient>
<linearGradient id="paint4_linear" x1="378.399" y1="250.104" x2="379.06" y2="265.601" gradientUnits="userSpaceOnUse">
<stop stop-color="#D94730"/>
<stop offset="1" stop-color="#9E2815"/>
</linearGradient>
<linearGradient id="paint5_linear" x1="376.81" y1="212.889" x2="368.827" y2="269.976" gradientUnits="userSpaceOnUse">
<stop stop-color="#F1BE35"/>
<stop offset="1" stop-color="#D9A222"/>
</linearGradient>
<linearGradient id="paint6_linear" x1="196.03" y1="328.285" x2="194.744" y2="351.336" gradientUnits="userSpaceOnUse">
<stop stop-color="#6AA4FB"/>
<stop offset="1" stop-color="#3E75C6"/>
</linearGradient>
<linearGradient id="paint7_linear" x1="195.47" y1="308.365" x2="202.243" y2="342.71" gradientUnits="userSpaceOnUse">
<stop stop-color="#FAC93D"/>
<stop offset="1" stop-color="#D8A021"/>
</linearGradient>
<linearGradient id="paint8_linear" x1="538.706" y1="398.417" x2="538.604" y2="419.615" gradientUnits="userSpaceOnUse">
<stop stop-color="#3F7AD4"/>
<stop offset="1" stop-color="#6AA4FB"/>
</linearGradient>
<linearGradient id="paint9_linear" x1="539.335" y1="407.235" x2="514.987" y2="482.89" gradientUnits="userSpaceOnUse">
<stop stop-color="#FAC93D"/>
<stop offset="1" stop-color="#D8A021"/>
</linearGradient>
<linearGradient id="paint10_linear" x1="125.13" y1="42.7091" x2="123.517" y2="52.8591" gradientUnits="userSpaceOnUse">
<stop stop-color="#D94730"/>
<stop offset="1" stop-color="#9E2815"/>
</linearGradient>
<linearGradient id="paint11_linear" x1="125.491" y1="13.1371" x2="127.322" y2="41.0771" gradientUnits="userSpaceOnUse">
<stop stop-color="#F7C63B"/>
<stop offset="1" stop-color="#D9A122"/>
</linearGradient>
<clipPath id="clip0">
<rect width="589" height="497" fill="white"/>
</clipPath>
</defs>
</svg>
